<?xml version="1.0" encoding="UTF-8" standalone="no"?>
<!DOCTYPE svg PUBLIC "-//W3C//DTD SVG 1.1//EN" "http://www.w3.org/Graphics/SVG/1.1/DTD/svg11.dtd">
<svg width="100%" height="100%" viewBox="0 0 33 33" version="1.1" xmlns="http://www.w3.org/2000/svg" xmlns:xlink="http://www.w3.org/1999/xlink" xml:space="preserve" xmlns:serif="http://www.serif.com/" style="fill-rule:evenodd;clip-rule:evenodd;">
    <rect x="1.064" y="0.927" width="31" height="31" style="fill:none;"/>
    <clipPath id="_clip1">
        <rect x="1.064" y="0.927" width="31" height="31"/>
    </clipPath>
    <g clip-path="url(#_clip1)">
        <g>
            <rect x="1.064" y="12.315" width="15" height="5.75" style="fill:none;stroke:rgb(70,66,61);stroke-width:1px;"/>
            <rect x="17.064" y="12.315" width="15" height="5.75" style="fill:none;stroke:rgb(70,66,61);stroke-width:1px;"/>
            <rect x="13.361" y="19.065" width="15" height="5.75" style="fill:none;stroke:rgb(70,66,61);stroke-width:1px;"/>
            <rect x="29.361" y="19.065" width="15" height="5.75" style="fill:none;stroke:rgb(70,66,61);stroke-width:1px;"/>
            <rect x="20.744" y="25.815" width="15" height="5.75" style="fill:none;stroke:rgb(70,66,61);stroke-width:1px;"/>
            <rect x="4.744" y="25.815" width="15" height="5.75" style="fill:none;stroke:rgb(70,66,61);stroke-width:1px;"/>
            <rect x="-11.256" y="25.815" width="15" height="5.75" style="fill:none;stroke:rgb(70,66,61);stroke-width:1px;"/>
            <rect x="-2.639" y="19.065" width="15" height="5.75" style="fill:none;stroke:rgb(70,66,61);stroke-width:1px;"/>
            <rect x="6.924" y="5.564" width="15" height="5.75" style="fill:none;fill-rule:nonzero;stroke:rgb(70,66,61);stroke-width:1px;"/>
            <rect x="22.924" y="5.564" width="15" height="5.75" style="fill:none;fill-rule:nonzero;stroke:rgb(70,66,61);stroke-width:1px;"/>
            <rect x="17.064" y="-1.186" width="15" height="5.75" style="fill:none;fill-rule:nonzero;stroke:rgb(70,66,61);stroke-width:1px;"/>
            <rect x="1.064" y="-1.186" width="15" height="5.75" style="fill:none;fill-rule:nonzero;stroke:rgb(70,66,61);stroke-width:1px;"/>
            <rect x="-9.076" y="5.564" width="15" height="5.75" style="fill:none;fill-rule:nonzero;stroke:rgb(70,66,61);stroke-width:1px;"/>
        </g>
    </g>
    <rect x="1.064" y="0.927" width="31" height="31" style="fill:none;stroke:rgb(70,66,61);stroke-width:1px;"/>
</svg>
