<svg width="32" height="33" viewBox="0 0 32 33" fill="none" xmlns="http://www.w3.org/2000/svg">
<g clip-path="url(#clip0)">
<rect x="0.111195" y="0.701812" width="5.77787" height="15.9988" transform="matrix(0.806156 0.591703 -0.583767 0.811921 6.28641 -1.43966)" stroke="#46423D"/>
<rect x="0.111195" y="0.701812" width="5.77787" height="15.9988" transform="matrix(0.806156 0.591703 -0.583767 0.811921 6.46128 8.3787)" stroke="#46423D"/>
<rect x="0.111195" y="0.701812" width="5.77787" height="15.9988" transform="matrix(0.806156 0.591703 -0.583767 0.811921 15.8131 -4.63351)" stroke="#46423D"/>
<rect x="0.111195" y="0.701812" width="5.77787" height="15.9988" transform="matrix(0.806156 0.591703 -0.583767 0.811921 5.611 19.5242)" stroke="#46423D"/>
<rect x="0.111195" y="0.701812" width="5.77787" height="15.9988" transform="matrix(0.806156 0.591703 -0.583767 0.811921 14.9629 6.51176)" stroke="#46423D"/>
<rect x="0.111195" y="0.701812" width="5.77787" height="15.9988" transform="matrix(0.806156 0.591703 -0.583767 0.811921 24.3207 -6.5046)" stroke="#46423D"/>
<rect x="0.111195" y="0.701812" width="5.77787" height="15.9988" transform="matrix(0.806156 0.591703 -0.583767 0.811921 9.30607 24.3697)" stroke="#46423D"/>
<rect x="0.111195" y="0.701812" width="5.77787" height="15.9988" transform="matrix(0.806156 0.591703 -0.583767 0.811921 18.658 11.3572)" stroke="#46423D"/>
<rect x="0.111195" y="0.701812" width="5.77787" height="15.9988" transform="matrix(0.806156 0.591703 -0.583767 0.811921 28.0158 -1.65914)" stroke="#46423D"/>
<rect x="0.111195" y="0.701812" width="5.77787" height="15.9988" transform="matrix(0.806156 0.591703 -0.583767 0.811921 16.9968 23.5777)" stroke="#46423D"/>
<rect x="0.111195" y="0.701812" width="5.77787" height="15.9988" transform="matrix(0.806156 0.591703 -0.583767 0.811921 26.3487 10.5652)" stroke="#46423D"/>
<rect x="0.111195" y="0.701812" width="5.77787" height="15.9988" transform="matrix(0.806156 0.591703 -0.583767 0.811921 35.7065 -2.45113)" stroke="#46423D"/>
<rect x="0.111195" y="0.701812" width="5.77787" height="15.9988" transform="matrix(0.806156 0.591703 -0.583767 0.811921 19.8118 29.6101)" stroke="#46423D"/>
<rect x="0.111195" y="0.701812" width="5.77787" height="15.9988" transform="matrix(0.806156 0.591703 -0.583767 0.811921 29.1637 16.5977)" stroke="#46423D"/>
<rect x="0.111195" y="0.701812" width="5.77787" height="15.9988" transform="matrix(0.806156 0.591703 -0.583767 0.811921 38.5215 3.58109)" stroke="#46423D"/>
</g>
<rect x="0.5" y="1.42676" width="31" height="31" stroke="#46423D"/>
<defs>
<clipPath id="clip0">
</clipPath>
</defs>
</svg>
