<svg width="41" height="41" viewBox="0 0 41 41" fill="none" xmlns="http://www.w3.org/2000/svg">
<path d="M39.7542 20.8479C39.7542 31.6415 31.0227 40.3896 20.2542 40.3896C9.48558 40.3896 0.75415 31.6415 0.75415 20.8479C0.75415 10.0543 9.48558 1.30615 20.2542 1.30615C31.0227 1.30615 39.7542 10.0543 39.7542 20.8479Z" fill="#88888E" stroke="#3E3C3C"/>
<path d="M20.2542 36.6633C28.9987 36.6633 36.0875 29.5744 36.0875 20.8299C36.0875 12.0854 28.9987 4.99658 20.2542 4.99658C11.5096 4.99658 4.42082 12.0854 4.42082 20.8299C4.42082 29.5744 11.5096 36.6633 20.2542 36.6633Z" stroke="#27272B" stroke-width="3" stroke-linecap="round" stroke-linejoin="round"/>
<path d="M20.2542 14.4966L13.9208 20.8299L20.2542 27.1632" stroke="#27272B" stroke-width="3" stroke-linecap="round" stroke-linejoin="round"/>
<path d="M26.5875 20.8298H13.9208" stroke="#27272B" stroke-width="3" stroke-linecap="round" stroke-linejoin="round"/>
</svg>
