<?xml version="1.0" encoding="UTF-8" standalone="no"?>
<!DOCTYPE svg PUBLIC "-//W3C//DTD SVG 1.1//EN" "http://www.w3.org/Graphics/SVG/1.1/DTD/svg11.dtd">
<svg width="100%" height="100%" viewBox="0 0 33 33" version="1.1" xmlns="http://www.w3.org/2000/svg" xmlnsXlink="http://www.w3.org/1999/xlink" xmlSpace="preserve" xmlnsSerif="http://www.serif.com/" style="fill-rule:evenodd;clip-rule:evenodd;">
    <g transform="matrix(1,0,0,1,0.064392,-0.42676)">
        <rect x="0.936" y="1.427" width="31" height="31" style="fill:none;"/>
        <clipPath id="_clip1">
            <rect x="0.936" y="1.427" width="31" height="31"/>
        </clipPath>
        <g clip-path="url(#_clip1)">
            <g transform="matrix(1,0,0,1,-0.064392,0.42676)">
                <path d="M0.151,31.465C0.148,31.465 0.143,31.465 0.138,31.466L-2.659,31.463C-4.171,30.79 -4.745,30.071 -4.869,29.474C-4.994,28.871 -4.704,28.168 -3.959,27.438C-3.226,26.719 -2.131,26.061 -0.895,25.582C0.338,25.104 1.677,24.819 2.881,24.819C5.413,24.819 8.043,25.083 10.023,25.788C12.017,26.5 13.169,27.582 13.169,29.136C13.169,29.894 12.854,30.386 12.292,30.741C11.693,31.12 10.802,31.346 9.681,31.462C8.57,31.577 7.293,31.578 5.959,31.55C5.513,31.54 5.06,31.527 4.605,31.514C3.712,31.488 2.815,31.462 1.964,31.462C0.69,31.462 0.248,31.463 0.182,31.464L0.181,31.464C0.178,31.464 0.169,31.464 0.16,31.464L0.151,31.465Z" style="fill:none;fill-rule:nonzero;stroke:rgb(70,66,61);stroke-width:1px;"/>
                <path d="M18.39,31.465C18.388,31.465 18.383,31.465 18.377,31.466L15.581,31.463C14.069,30.79 13.495,30.071 13.371,29.474C13.245,28.871 13.536,28.168 14.28,27.438C15.014,26.719 16.109,26.061 17.345,25.582C18.578,25.104 19.916,24.819 21.12,24.819C23.652,24.819 26.283,25.083 28.262,25.788C30.257,26.5 31.409,27.582 31.409,29.136C31.409,29.894 31.094,30.386 30.531,30.741C29.932,31.12 29.042,31.346 27.921,31.462C26.81,31.577 25.533,31.578 24.199,31.55C23.753,31.54 23.299,31.527 22.845,31.514C21.952,31.488 21.054,31.462 20.204,31.462C18.929,31.462 18.487,31.463 18.421,31.464L18.421,31.464C18.418,31.464 18.409,31.464 18.399,31.464L18.39,31.465Z" style="fill:none;fill-rule:nonzero;stroke:rgb(70,66,61);stroke-width:1px;"/>
                <path d="M8.857,24.697C8.854,24.697 8.849,24.697 8.844,24.698L6.048,24.695C4.535,24.022 3.961,23.302 3.837,22.706C3.712,22.103 4.002,21.4 4.747,20.67C5.48,19.951 6.575,19.293 7.811,18.814C9.044,18.336 10.383,18.051 11.587,18.051C14.119,18.051 16.749,18.314 18.729,19.02C20.723,19.732 21.875,20.814 21.875,22.368C21.875,23.126 21.56,23.618 20.998,23.973C20.399,24.352 19.508,24.578 18.387,24.694C17.276,24.809 15.999,24.811 14.665,24.782C14.22,24.772 13.766,24.759 13.311,24.746C12.418,24.72 11.521,24.695 10.67,24.695C9.396,24.695 8.954,24.695 8.888,24.696L8.887,24.696C8.884,24.696 8.875,24.696 8.866,24.696L8.857,24.697Z" style="fill:none;fill-rule:nonzero;stroke:rgb(70,66,61);stroke-width:1px;"/>
                <path d="M27.096,24.696C27.094,24.697 27.089,24.697 27.084,24.697L24.287,24.694C22.775,24.022 22.201,23.302 22.077,22.706C21.951,22.102 22.242,21.4 22.987,20.67C23.72,19.951 24.815,19.293 26.051,18.814C27.284,18.336 28.622,18.051 29.826,18.051C32.358,18.051 34.989,18.314 36.968,19.02C38.963,19.732 40.115,20.814 40.115,22.368C40.115,23.126 39.8,23.618 39.237,23.973C38.638,24.352 37.748,24.578 36.627,24.694C35.516,24.809 34.239,24.81 32.905,24.782C32.459,24.772 32.006,24.759 31.551,24.746C30.658,24.72 29.76,24.694 28.91,24.694C27.636,24.694 27.193,24.695 27.127,24.696L27.127,24.696C27.124,24.696 27.115,24.696 27.106,24.696L27.096,24.696Z" style="fill:none;fill-rule:nonzero;stroke:rgb(70,66,61);stroke-width:1px;"/>
                <path d="M-9.383,24.696C-9.385,24.697 -9.391,24.697 -9.396,24.697L-12.192,24.694C-13.705,24.022 -14.279,23.302 -14.403,22.706C-14.528,22.102 -14.238,21.4 -13.493,20.67C-12.759,19.951 -11.664,19.293 -10.429,18.814C-9.195,18.336 -7.857,18.051 -6.653,18.051C-4.121,18.051 -1.49,18.314 0.489,19.02C2.484,19.732 3.636,20.814 3.636,22.368C3.636,23.126 3.32,23.618 2.758,23.973C2.159,24.352 1.269,24.578 0.147,24.694C-0.963,24.809 -2.24,24.81 -3.574,24.782C-4.02,24.772 -4.474,24.759 -4.928,24.746C-5.821,24.72 -6.719,24.694 -7.569,24.694C-8.844,24.694 -9.286,24.695 -9.352,24.696L-9.352,24.696C-9.355,24.696 -9.365,24.696 -9.374,24.696L-9.383,24.696Z" style="fill:none;fill-rule:nonzero;stroke:rgb(70,66,61);stroke-width:1px;"/>
                <path d="M1.744,17.756C1.742,17.756 1.737,17.757 1.732,17.757L-1.065,17.754C-2.577,17.082 -3.151,16.362 -3.275,15.766C-3.401,15.162 -3.11,14.459 -2.365,13.73C-1.632,13.011 -0.537,12.352 0.699,11.874C1.932,11.396 3.27,11.111 4.474,11.111C7.006,11.111 9.637,11.374 11.616,12.08C13.611,12.791 14.763,13.873 14.763,15.428C14.763,16.186 14.448,16.677 13.885,17.033C13.286,17.412 12.396,17.638 11.275,17.754C10.164,17.868 8.887,17.87 7.553,17.841C7.107,17.832 6.654,17.819 6.199,17.806C5.306,17.78 4.408,17.754 3.558,17.754C2.284,17.754 1.841,17.755 1.775,17.755L1.775,17.755C1.772,17.755 1.763,17.755 1.754,17.756L1.744,17.756Z" style="fill:none;fill-rule:nonzero;stroke:rgb(70,66,61);stroke-width:1px;"/>
                <path d="M19.927,18.101C19.924,18.101 19.919,18.101 19.914,18.101L17.118,18.098C15.605,17.426 15.031,16.706 14.907,16.11C14.782,15.507 15.072,14.804 15.817,14.074C16.551,13.355 17.645,12.697 18.881,12.218C20.114,11.74 21.453,11.455 22.657,11.455C25.189,11.455 27.819,11.718 29.799,12.424C31.793,13.136 32.945,14.217 32.945,15.772C32.945,16.53 32.63,17.022 32.068,17.377C31.469,17.756 30.578,17.982 29.457,18.098C28.346,18.213 27.069,18.214 25.735,18.186C25.29,18.176 24.836,18.163 24.381,18.15C23.488,18.124 22.591,18.098 21.74,18.098C20.466,18.098 20.024,18.099 19.958,18.1L19.936,18.1L19.927,18.101Z" style="fill:none;fill-rule:nonzero;stroke:rgb(70,66,61);stroke-width:1px;"/>
                <path d="M10.701,11.16L10.679,11.161L7.883,11.158C6.37,10.486 5.796,9.766 5.673,9.17C5.547,8.566 5.837,7.863 6.582,7.134C7.316,6.415 8.411,5.756 9.646,5.278C10.88,4.8 12.218,4.515 13.422,4.515C15.954,4.515 18.585,4.778 20.564,5.484C22.559,6.195 23.711,7.277 23.711,8.832C23.711,9.59 23.395,10.082 22.833,10.437C22.234,10.816 21.344,11.042 20.223,11.158C19.112,11.273 17.835,11.274 16.501,11.245C16.055,11.236 15.601,11.223 15.147,11.21C14.254,11.184 13.356,11.158 12.506,11.158C11.231,11.158 10.789,11.159 10.723,11.159L10.701,11.16Z" style="fill:none;fill-rule:nonzero;stroke:rgb(70,66,61);stroke-width:1px;"/>
                <path d="M28.884,11.16L28.862,11.161L26.065,11.158C24.553,10.486 23.979,9.766 23.855,9.17C23.729,8.566 24.02,7.863 24.765,7.134C25.498,6.415 26.593,5.756 27.829,5.278C29.062,4.8 30.4,4.515 31.605,4.515C34.137,4.515 36.767,4.778 38.746,5.484C40.741,6.195 41.893,7.277 41.893,8.832C41.893,9.59 41.578,10.082 41.015,10.437C40.416,10.816 39.526,11.042 38.405,11.158C37.294,11.273 36.017,11.274 34.683,11.245C34.237,11.236 33.784,11.223 33.329,11.21C32.436,11.184 31.539,11.158 30.688,11.158C29.414,11.158 28.971,11.159 28.905,11.159L28.884,11.16Z" style="fill:none;fill-rule:nonzero;stroke:rgb(70,66,61);stroke-width:1px;"/>
                <path d="M-7.78,11.16L-7.802,11.161L-10.598,11.158C-12.111,10.486 -12.685,9.766 -12.809,9.17C-12.934,8.566 -12.644,7.863 -11.899,7.134C-11.165,6.415 -10.07,5.756 -8.835,5.278C-7.602,4.8 -6.263,4.515 -5.059,4.515C-2.527,4.515 0.103,4.778 2.083,5.484C4.078,6.195 5.23,7.277 5.23,8.832C5.23,9.59 4.914,10.082 4.352,10.437C3.753,10.816 2.862,11.042 1.741,11.158C0.63,11.273 -0.647,11.274 -1.981,11.245C-2.426,11.236 -2.88,11.223 -3.335,11.21C-4.228,11.184 -5.125,11.158 -5.975,11.158C-7.25,11.158 -7.692,11.159 -7.758,11.159L-7.78,11.16Z" style="fill:none;fill-rule:nonzero;stroke:rgb(70,66,61);stroke-width:1px;"/>
                <path d="M1.744,4.736C1.742,4.736 1.737,4.737 1.732,4.737L-1.065,4.734C-2.577,4.062 -3.151,3.342 -3.275,2.746C-3.401,2.142 -3.11,1.439 -2.365,0.71C-1.632,-0.009 -0.537,-0.668 0.699,-1.146C1.932,-1.624 3.27,-1.909 4.474,-1.909C7.006,-1.909 9.637,-1.646 11.616,-0.94C13.611,-0.229 14.763,0.853 14.763,2.408C14.763,3.166 14.448,3.658 13.885,4.013C13.286,4.391 12.396,4.618 11.275,4.734C10.164,4.848 8.887,4.85 7.553,4.821C7.107,4.812 6.654,4.799 6.199,4.786C5.306,4.76 4.408,4.734 3.558,4.734C2.284,4.734 1.841,4.735 1.775,4.735L1.775,4.735C1.772,4.735 1.763,4.735 1.754,4.736L1.744,4.736Z" style="fill:none;fill-rule:nonzero;stroke:rgb(70,66,61);stroke-width:1px;"/>
                <path d="M20.226,4.392C20.223,4.392 20.218,4.392 20.213,4.393L17.417,4.39C15.904,3.718 15.33,2.998 15.206,2.401C15.081,1.798 15.371,1.095 16.116,0.365C16.849,-0.353 17.944,-1.012 19.18,-1.491C20.413,-1.968 21.752,-2.254 22.956,-2.254C25.488,-2.254 28.118,-1.99 30.098,-1.284C32.092,-0.573 33.244,0.509 33.244,2.063C33.244,2.821 32.929,3.313 32.367,3.669C31.768,4.047 30.877,4.273 29.756,4.389C28.645,4.504 27.368,4.506 26.034,4.477C25.588,4.467 25.135,4.454 24.68,4.441C23.787,4.416 22.89,4.39 22.039,4.39C20.765,4.39 20.323,4.39 20.257,4.391L20.256,4.391C20.253,4.391 20.244,4.391 20.235,4.392L20.226,4.392Z" style="fill:none;fill-rule:nonzero;stroke:rgb(70,66,61);stroke-width:1px;"/>
            </g>
        </g>
        <rect x="0.936" y="1.427" width="31" height="31" style="fill:none;stroke:rgb(70,66,61);stroke-width:1px;"/>
    </g>
</svg>
