<svg width="33" height="33" viewBox="0 0 33 33" fill="none" xmlns="http://www.w3.org/2000/svg">
<g clip-path="url(#clip0)">
<path d="M0.150563 31.4647C0.148071 31.4649 0.143025 31.4652 0.137806 31.4657L-2.65859 31.4627C-4.17115 30.7903 -4.74509 30.0705 -4.86902 29.4741C-4.9944 28.8707 -4.70417 28.1679 -3.95919 27.4381C-3.22563 26.7194 -2.13078 26.0609 -0.895148 25.5821C0.338148 25.1043 1.67661 24.8191 2.88068 24.8191C5.41265 24.8191 8.04322 25.0825 10.0226 25.7884C12.0173 26.4999 13.1693 27.5818 13.1693 29.1361C13.1693 29.8941 12.854 30.386 12.2916 30.7414C11.6926 31.12 10.802 31.3461 9.68096 31.4621C8.57017 31.5769 7.29312 31.5785 5.95903 31.5498C5.51338 31.5402 5.05986 31.5272 4.60522 31.5141C3.7121 31.4884 2.8147 31.4625 1.96432 31.4625C0.689809 31.4625 0.247556 31.4631 0.181534 31.4638L0.181104 31.4638C0.178372 31.4638 0.16888 31.4639 0.159782 31.4643L0.150563 31.4647Z" stroke="#46423D"/>
<path d="M18.3902 31.4647C18.3877 31.4649 18.3826 31.4652 18.3774 31.4657L15.581 31.4627C14.0685 30.7903 13.4945 30.0705 13.3706 29.4741C13.2452 28.8707 13.5355 28.1679 14.2804 27.4381C15.014 26.7194 16.1088 26.0609 17.3445 25.5821C18.5778 25.1043 19.9162 24.8191 21.1203 24.8191C23.6523 24.8191 26.2828 25.0825 28.2622 25.7884C30.2569 26.4999 31.4089 27.5818 31.4089 29.1361C31.4089 29.8941 31.0936 30.386 30.5312 30.7414C29.9322 31.12 29.0417 31.3461 27.9206 31.4621C26.8098 31.5769 25.5327 31.5785 24.1987 31.5498C23.753 31.5402 23.2995 31.5272 22.8448 31.5141C21.9517 31.4884 21.0543 31.4625 20.2039 31.4625C18.9294 31.4625 18.4872 31.4631 18.4212 31.4638L18.4207 31.4638C18.418 31.4638 18.4085 31.4639 18.3994 31.4643L18.3902 31.4647Z" stroke="#46423D"/>
<path d="M8.85666 24.6966C8.85417 24.6968 8.84913 24.6972 8.84391 24.6976L6.04751 24.6946C4.53495 24.0222 3.96101 23.3024 3.83708 22.7061C3.7117 22.1027 4.00193 21.3998 4.74692 20.67C5.48047 19.9514 6.57532 19.2929 7.81095 18.8141C9.04425 18.3362 10.3827 18.051 11.5868 18.051C14.1188 18.051 16.7493 18.3144 18.7287 19.0204C20.7234 19.7318 21.8754 20.8137 21.8754 22.368C21.8754 23.1261 21.5601 23.618 20.9977 23.9733C20.3987 24.3519 19.5081 24.5781 18.3871 24.694C17.2763 24.8089 15.9992 24.8105 14.6651 24.7818C14.2195 24.7722 13.766 24.7591 13.3113 24.746C12.4182 24.7203 11.5208 24.6945 10.6704 24.6945C9.39591 24.6945 8.95366 24.695 8.88763 24.6957L8.8872 24.6957C8.88447 24.6957 8.87498 24.6958 8.86588 24.6962L8.85666 24.6966Z" stroke="#46423D"/>
<path d="M27.0963 24.6964C27.0938 24.6966 27.0887 24.6969 27.0835 24.6973L24.2871 24.6943C22.7746 24.022 22.2006 23.3022 22.0767 22.7058C21.9513 22.1024 22.2416 21.3996 22.9865 20.6698C23.7201 19.9511 24.8149 19.2926 26.0506 18.8138C27.2839 18.3359 28.6223 18.0508 29.8264 18.0508C32.3584 18.0508 34.9889 18.3142 36.9683 19.0201C38.963 19.7315 40.115 20.8135 40.115 22.3678C40.115 23.1258 39.7997 23.6177 39.2373 23.9731C38.6383 24.3516 37.7478 24.5778 36.6267 24.6938C35.5159 24.8086 34.2388 24.8102 32.9048 24.7815C32.4591 24.7719 32.0056 24.7589 31.5509 24.7458C30.6578 24.7201 29.7604 24.6942 28.91 24.6942C27.6355 24.6942 27.1933 24.6948 27.1273 24.6955L27.1268 24.6955C27.1241 24.6955 27.1146 24.6956 27.1055 24.696L27.0963 24.6964Z" stroke="#46423D"/>
<path d="M-9.38296 24.6964C-9.38545 24.6966 -9.3905 24.6969 -9.39572 24.6973L-12.1921 24.6943C-13.7047 24.022 -14.2786 23.3022 -14.4025 22.7058C-14.5279 22.1024 -14.2377 21.3996 -13.4927 20.6698C-12.7592 19.9511 -11.6643 19.2926 -10.4287 18.8138C-9.19538 18.3359 -7.85691 18.0508 -6.65284 18.0508C-4.12087 18.0508 -1.4903 18.3142 0.489086 19.0201C2.48379 19.7315 3.63573 20.8135 3.63573 22.3678C3.63573 23.1258 3.32045 23.6177 2.75809 23.9731C2.15905 24.3516 1.2685 24.5778 0.147434 24.6938C-0.963351 24.8086 -2.2404 24.8102 -3.57449 24.7815C-4.02014 24.7719 -4.47367 24.7589 -4.92831 24.7458C-5.82142 24.7201 -6.71883 24.6942 -7.56921 24.6942C-8.84371 24.6942 -9.28597 24.6948 -9.35199 24.6955L-9.35242 24.6955C-9.35515 24.6955 -9.36464 24.6956 -9.37374 24.696L-9.38296 24.6964Z" stroke="#46423D"/>
<path d="M1.74436 17.7562C1.74187 17.7564 1.73682 17.7567 1.7316 17.7572L-1.06479 17.7542C-2.57736 17.0818 -3.1513 16.362 -3.27523 15.7656C-3.40061 15.1622 -3.11038 14.4594 -2.36539 13.7296C-1.63183 13.0109 -0.536987 12.3524 0.698648 11.8736C1.93194 11.3958 3.27041 11.1106 4.47448 11.1106C7.00645 11.1106 9.63702 11.374 11.6164 12.0799C13.6111 12.7914 14.7631 13.8733 14.7631 15.4276C14.7631 16.1857 14.4478 16.6775 13.8854 17.0329C13.2864 17.4115 12.3958 17.6376 11.2748 17.7536C10.164 17.8684 8.88692 17.8701 7.55283 17.8413C7.10718 17.8317 6.65365 17.8187 6.19901 17.8056C5.30589 17.7799 4.40849 17.7541 3.55811 17.7541C2.2836 17.7541 1.84135 17.7546 1.77533 17.7553L1.7749 17.7553C1.77217 17.7553 1.76268 17.7554 1.75358 17.7558L1.74436 17.7562Z" stroke="#46423D"/>
<path d="M19.9266 18.1005C19.9241 18.1006 19.9191 18.101 19.9139 18.1014L17.1175 18.0984C15.6049 17.426 15.031 16.7063 14.9071 16.1099C14.7817 15.5065 15.0719 14.8036 15.8169 14.0738C16.5505 13.3552 17.6453 12.6967 18.8809 12.2179C20.1142 11.74 21.4527 11.4548 22.6568 11.4548C25.1887 11.4548 27.8193 11.7182 29.7987 12.4242C31.7934 13.1356 32.9453 14.2175 32.9453 15.7718C32.9453 16.5299 32.6301 17.0218 32.0677 17.3771C31.4687 17.7557 30.5781 17.9819 29.457 18.0978C28.3462 18.2127 27.0692 18.2143 25.7351 18.1856C25.2895 18.176 24.8359 18.1629 24.3813 18.1498C23.4882 18.1241 22.5908 18.0983 21.7404 18.0983C20.4659 18.0983 20.0236 18.0988 19.9576 18.0995L19.9572 18.0995C19.9544 18.0996 19.945 18.0997 19.9359 18.1L19.9266 18.1005Z" stroke="#46423D"/>
<path d="M10.6921 11.1603C10.6896 11.1604 10.6846 11.1608 10.6794 11.1612L7.88296 11.1582C6.3704 10.4858 5.79646 9.76607 5.67253 9.16968C5.54715 8.5663 5.83738 7.86346 6.58236 7.13362C7.31592 6.41497 8.41077 5.75647 9.6464 5.27769C10.8797 4.79982 12.2182 4.51465 13.4222 4.51465C15.9542 4.51465 18.5848 4.77803 20.5642 5.48399C22.5589 6.19542 23.7108 7.27733 23.7108 8.83165C23.7108 9.58971 23.3955 10.0816 22.8332 10.437C22.2341 10.8155 21.3436 11.0417 20.2225 11.1576C19.1117 11.2725 17.8347 11.2741 16.5006 11.2454C16.0549 11.2358 15.6014 11.2227 15.1468 11.2096C14.2536 11.1839 13.3562 11.1581 12.5059 11.1581C11.2314 11.1581 10.7891 11.1586 10.7231 11.1593L10.7227 11.1593C10.7199 11.1594 10.7104 11.1595 10.7013 11.1598L10.6921 11.1603Z" stroke="#46423D"/>
<path d="M28.8744 11.1603C28.8719 11.1604 28.8669 11.1608 28.8616 11.1612L26.0652 11.1582C24.5527 10.4858 23.9787 9.76607 23.8548 9.16968C23.7294 8.5663 24.0197 7.86346 24.7646 7.13362C25.4982 6.41497 26.593 5.75647 27.8287 5.27769C29.062 4.79982 30.4004 4.51465 31.6045 4.51465C34.1365 4.51465 36.7671 4.77803 38.7464 5.48399C40.7411 6.19542 41.8931 7.27733 41.8931 8.83165C41.8931 9.58971 41.5778 10.0816 41.0154 10.437C40.4164 10.8155 39.5259 11.0417 38.4048 11.1576C37.294 11.2725 36.017 11.2741 34.6829 11.2454C34.2372 11.2358 33.7837 11.2227 33.329 11.2096C32.4359 11.1839 31.5385 11.1581 30.6881 11.1581C29.4136 11.1581 28.9714 11.1586 28.9054 11.1593L28.9049 11.1593C28.9022 11.1594 28.8927 11.1595 28.8836 11.1598L28.8744 11.1603Z" stroke="#46423D"/>
<path d="M-7.78916 11.1603C-7.79166 11.1604 -7.7967 11.1608 -7.80192 11.1612L-10.5983 11.1582C-12.1109 10.4858 -12.6848 9.76607 -12.8087 9.16968C-12.9341 8.5663 -12.6439 7.86346 -11.8989 7.13362C-11.1654 6.41497 -10.0705 5.75647 -8.83488 5.27769C-7.60158 4.79982 -6.26312 4.51465 -5.05904 4.51465C-2.52707 4.51465 0.103496 4.77803 2.08288 5.48399C4.07758 6.19542 5.22953 7.27733 5.22953 8.83165C5.22953 9.58971 4.91425 10.0816 4.35188 10.437C3.75285 10.8155 2.8623 11.0417 1.74123 11.1576C0.630445 11.2725 -0.646608 11.2741 -1.98069 11.2454C-2.42634 11.2358 -2.87987 11.2227 -3.33451 11.2096C-4.22763 11.1839 -5.12503 11.1581 -5.97541 11.1581C-7.24992 11.1581 -7.69217 11.1586 -7.75819 11.1593L-7.75862 11.1593C-7.76136 11.1594 -7.77085 11.1595 -7.77995 11.1598L-7.78916 11.1603Z" stroke="#46423D"/>
<path d="M1.74436 4.7362C1.74187 4.73635 1.73682 4.73672 1.7316 4.73714L-1.06479 4.73414C-2.57736 4.06175 -3.1513 3.34199 -3.27523 2.7456C-3.40061 2.14222 -3.11038 1.43939 -2.36539 0.709548C-1.63183 -0.00909758 -0.536987 -0.667598 0.698648 -1.14638C1.93194 -1.62426 3.27041 -1.90942 4.47448 -1.90942C7.00645 -1.90942 9.63702 -1.64604 11.6164 -0.94008C13.6111 -0.228656 14.7631 0.853255 14.7631 2.40757C14.7631 3.16563 14.4478 3.65752 13.8854 4.01289C13.2864 4.39143 12.3958 4.61762 11.2748 4.73355C10.164 4.84843 8.88692 4.85003 7.55283 4.8213C7.10718 4.8117 6.65365 4.79865 6.19901 4.78557C5.30589 4.75986 4.40849 4.73403 3.55811 4.73403C2.2836 4.73403 1.84135 4.73456 1.77533 4.73527L1.7749 4.73527C1.77217 4.7353 1.76268 4.73539 1.75358 4.73575L1.74436 4.7362Z" stroke="#46423D"/>
<path d="M20.2256 4.39196C20.2231 4.39211 20.2181 4.39248 20.2129 4.39291L17.4165 4.38991C15.9039 3.71751 15.33 2.99776 15.206 2.40137C15.0807 1.79798 15.3709 1.09515 16.1159 0.365309C16.8494 -0.353336 17.9443 -1.01184 19.1799 -1.49062C20.4132 -1.9685 21.7517 -2.25366 22.9557 -2.25366C25.4877 -2.25366 28.1183 -1.99028 30.0977 -1.28432C32.0924 -0.572894 33.2443 0.509017 33.2443 2.06334C33.2443 2.8214 32.929 3.31328 32.3667 3.66865C31.7676 4.0472 30.8771 4.27338 29.756 4.38932C28.6452 4.50419 27.3682 4.50579 26.0341 4.47706C25.5884 4.46746 25.1349 4.45441 24.6803 4.44133C23.7872 4.41562 22.8898 4.38979 22.0394 4.38979C20.7649 4.38979 20.3226 4.39032 20.2566 4.39103L20.2562 4.39103C20.2534 4.39106 20.2439 4.39115 20.2348 4.39151L20.2256 4.39196Z" stroke="#46423D"/>
</g>
<rect x="0.935608" y="1.42676" width="31" height="31" stroke="#46423D"/>
<defs>
<clipPath id="clip0">
</clipPath>
</defs>
</svg>
