<svg width="32" height="32" viewBox="0 0 32 32" fill="none" xmlns="http://www.w3.org/2000/svg">
<path d="M30.5 16.0002H5V7.00024C5 5.89743 5.89719 5.00024 7 5.00024C7.70944 5.00024 8.33325 5.37181 8.68844 5.93024C7.65769 7.50568 7.7705 9.65374 9.11581 11.1199C8.85481 11.4145 8.8645 11.8647 9.1465 12.1467L9.85363 12.8538C10.1465 13.1467 10.6214 13.1467 10.9143 12.8538L16.8537 6.91449C17.1466 6.62162 17.1466 6.14674 16.8537 5.85381L16.1466 5.14668C15.8646 4.86468 15.4144 4.85506 15.1198 5.11599C13.998 4.08668 12.4764 3.77668 11.1087 4.15568C10.2051 2.85443 8.70075 2.00024 7 2.00024C4.243 2.00024 2 4.24324 2 7.00024V16.0002H1.5C0.671562 16.0002 0 16.6718 0 17.5002V18.5002C0 19.3287 0.671562 20.0002 1.5 20.0002H2V22.0002C2 23.7771 2.77262 25.3733 4 26.4719V28.5002C4 29.3287 4.67156 30.0002 5.5 30.0002H6.5C7.32844 30.0002 8 29.3287 8 28.5002V28.0002H24V28.5002C24 29.3287 24.6716 30.0002 25.5 30.0002H26.5C27.3284 30.0002 28 29.3287 28 28.5002V26.4719C29.2274 25.3733 30 23.7771 30 22.0002V20.0002H30.5C31.3284 20.0002 32 19.3287 32 18.5002V17.5002C32 16.6718 31.3284 16.0002 30.5 16.0002Z" fill="#46423D"/>
</svg>
