<svg width="100" height="32" viewBox="0 0 100 32" fill="none" xmlns="http://www.w3.org/2000/svg">
<path d="M6.04797 29.278V22.1687H8.37219C9.14368 22.1687 9.7231 22.3282 10.1105 22.6472C10.5011 22.9662 10.6964 23.4382 10.6964 24.0632C10.6964 24.3952 10.602 24.6898 10.4132 24.947C10.2244 25.2009 9.96724 25.3978 9.64172 25.5378C10.0258 25.6452 10.3286 25.8503 10.5499 26.153C10.7745 26.4525 10.8868 26.8106 10.8868 27.2273C10.8868 27.8653 10.6801 28.3666 10.2667 28.7312C9.85331 29.0958 9.269 29.278 8.51379 29.278H6.04797ZM6.98547 25.9529V28.5114H8.53333C8.96952 28.5114 9.31295 28.3991 9.5636 28.1745C9.8175 27.9467 9.94446 27.6342 9.94446 27.237C9.94446 26.3809 9.47896 25.9529 8.54797 25.9529H6.98547ZM6.98547 25.2009H8.40149C8.81165 25.2009 9.13879 25.0984 9.38293 24.8933C9.63033 24.6882 9.75403 24.4099 9.75403 24.0583C9.75403 23.6677 9.6401 23.3845 9.41223 23.2087C9.18437 23.0297 8.83769 22.9402 8.37219 22.9402H6.98547V25.2009ZM12.2784 29.278V22.1687H14.6027C15.3741 22.1687 15.9536 22.3282 16.3409 22.6472C16.7316 22.9662 16.9269 23.4382 16.9269 24.0632C16.9269 24.3952 16.8325 24.6898 16.6437 24.947C16.4549 25.2009 16.1977 25.3978 15.8722 25.5378C16.2563 25.6452 16.559 25.8503 16.7804 26.153C17.005 26.4525 17.1173 26.8106 17.1173 27.2273C17.1173 27.8653 16.9106 28.3666 16.4972 28.7312C16.0838 29.0958 15.4995 29.278 14.7443 29.278H12.2784ZM13.2159 25.9529V28.5114H14.7638C15.2 28.5114 15.5434 28.3991 15.7941 28.1745C16.048 27.9467 16.1749 27.6342 16.1749 27.237C16.1749 26.3809 15.7094 25.9529 14.7784 25.9529H13.2159ZM13.2159 25.2009H14.632C15.0421 25.2009 15.3693 25.0984 15.6134 24.8933C15.8608 24.6882 15.9845 24.4099 15.9845 24.0583C15.9845 23.6677 15.8706 23.3845 15.6427 23.2087C15.4148 23.0297 15.0682 22.9402 14.6027 22.9402H13.2159V25.2009ZM18.5089 29.278V22.1687H20.8331C21.6046 22.1687 22.184 22.3282 22.5714 22.6472C22.962 22.9662 23.1573 23.4382 23.1573 24.0632C23.1573 24.3952 23.0629 24.6898 22.8741 24.947C22.6853 25.2009 22.4282 25.3978 22.1027 25.5378C22.4868 25.6452 22.7895 25.8503 23.0109 26.153C23.2355 26.4525 23.3478 26.8106 23.3478 27.2273C23.3478 27.8653 23.1411 28.3666 22.7277 28.7312C22.3142 29.0958 21.7299 29.278 20.9747 29.278H18.5089ZM19.4464 25.9529V28.5114H20.9943C21.4305 28.5114 21.7739 28.3991 22.0245 28.1745C22.2784 27.9467 22.4054 27.6342 22.4054 27.237C22.4054 26.3809 21.9399 25.9529 21.0089 25.9529H19.4464ZM19.4464 25.2009H20.8624C21.2726 25.2009 21.5997 25.0984 21.8439 24.8933C22.0913 24.6882 22.215 24.4099 22.215 24.0583C22.215 23.6677 22.101 23.3845 21.8732 23.2087C21.6453 23.0297 21.2986 22.9402 20.8331 22.9402H19.4464V25.2009Z" fill="white"/>
<path d="M7.43619 17.7322C7.49274 17.7117 7.55377 17.7005 7.61741 17.7005H14.865L22.1126 17.7005C22.1762 17.7005 22.2372 17.7117 22.2938 17.7322L21.4642 17.7322C21.2108 17.7217 20.9756 17.72 20.7609 17.7332C20.2749 17.7631 19.7987 17.8744 19.468 18.2441C19.1444 18.6058 19.0595 19.1059 19.0592 19.6505V19.6508V20.5694L14.865 20.5694H10.6708L10.6708 19.6508L10.6708 19.6505C10.6705 19.1059 10.5856 18.6058 10.262 18.2441C9.93127 17.8744 9.45511 17.7631 8.96912 17.7332C8.75443 17.72 8.51917 17.7217 8.26583 17.7322L7.43619 17.7322Z" stroke="white"/>
<path d="M13.5012 11.4747C13.5394 11.4229 13.5776 11.3732 13.6154 11.3258C13.6249 11.3356 13.634 11.345 13.6425 11.3538C13.6453 11.3566 13.648 11.3594 13.6506 11.3622C13.6807 11.3933 13.7119 11.4253 13.7456 11.4598C13.7945 11.5101 13.8487 11.5657 13.9124 11.6317C14.1192 11.846 14.3806 12.1232 14.6392 12.4265C14.8993 12.7314 15.1484 13.053 15.3348 13.3556C15.5293 13.6712 15.6204 13.9104 15.632 14.0617C15.6462 14.2453 15.606 14.5058 15.5112 14.8235C15.4188 15.1331 15.2857 15.4606 15.1456 15.7649C15.1133 15.835 15.0808 15.9035 15.0486 15.9697C14.9785 15.8978 14.8976 15.818 14.8128 15.7347C14.7918 15.7141 14.7703 15.6931 14.7485 15.6718C14.5209 15.4487 14.2514 15.1846 13.984 14.8927C13.6903 14.5721 13.4128 14.2324 13.209 13.899C13.001 13.5587 12.8977 13.2697 12.8922 13.042C12.879 12.4984 13.16 11.9382 13.5012 11.4747Z" stroke="white"/>
<path d="M16.7401 12.535C16.7341 12.5262 16.7283 12.5179 16.7228 12.5101C16.6733 12.4402 16.6129 12.365 16.5481 12.2884C16.4184 12.1351 16.2466 11.9479 16.0557 11.7414C16.0217 11.7046 15.9868 11.667 15.9513 11.6286C15.583 11.2307 15.1394 10.7516 14.7007 10.225C14.219 9.64672 13.7555 9.02566 13.4149 8.41354C13.0702 7.79408 12.8774 7.22956 12.8791 6.75404C12.8828 5.71983 13.432 4.72978 14.0357 3.9629C14.1948 3.76076 14.3542 3.57866 14.5022 3.42045C14.5149 3.44432 14.5287 3.46788 14.5437 3.49101C14.5929 3.56697 14.6989 3.68757 14.7936 3.79531C14.8401 3.84818 14.8901 3.90474 14.9446 3.96634C15.025 4.05721 15.1151 4.15904 15.2178 4.27613C15.5545 4.66033 15.9828 5.16004 16.4066 5.70568C16.8316 6.25301 17.2444 6.83683 17.5541 7.38893C17.8714 7.95439 18.0478 8.43001 18.0644 8.7744C18.0826 9.14928 17.9888 9.63196 17.8114 10.1734C17.6365 10.7073 17.3925 11.2625 17.1409 11.7705C17.0048 12.0454 16.8677 12.304 16.7401 12.535Z" stroke="white"/>
<path d="M56.0172 9.47238H57.4576C57.9231 9.47238 58.2926 9.35194 58.566 9.11105C58.8427 8.87017 58.9811 8.5479 58.9811 8.14426C58.9811 7.7048 58.8492 7.36789 58.5856 7.13351C58.3251 6.89914 57.9475 6.78032 57.4528 6.77707H56.0172V9.47238Z" fill="white"/>
<path d="M67.8629 6.77707V12.3484H68.8492C69.5719 12.3484 70.1334 12.1237 70.5338 11.6745C70.9375 11.2253 71.1393 10.5857 71.1393 9.75558V9.34055C71.1393 8.53325 70.9488 7.90663 70.568 7.46066C70.1904 7.01144 69.6533 6.78358 68.9567 6.77707H67.8629Z" fill="white"/>
<path d="M88.6539 6.77707V12.3484H89.6403C90.3629 12.3484 90.9244 12.1237 91.3248 11.6745C91.7285 11.2253 91.9303 10.5857 91.9303 9.75558V9.34055C91.9303 8.53325 91.7399 7.90663 91.359 7.46066C90.9814 7.01144 90.4443 6.78358 89.7477 6.77707H88.6539Z" fill="white"/>
<path d="M36.818 10.488H39.235L38.024 7.16281L36.818 10.488Z" fill="white"/>
<path fill-rule="evenodd" clip-rule="evenodd" d="M36.525 24.3484V21.7898H38.0875C39.0185 21.7898 39.484 22.2178 39.484 23.0739C39.484 23.4711 39.357 23.7836 39.1031 24.0114C38.8525 24.2361 38.5091 24.3484 38.0729 24.3484H36.525ZM37.941 21.0378H36.525V18.7771H37.9117C38.3772 18.7771 38.7239 18.8666 38.9518 19.0456C39.1796 19.2214 39.2936 19.5046 39.2936 19.8952C39.2936 20.2468 39.1699 20.5251 38.9225 20.7302C38.6783 20.9353 38.3512 21.0378 37.941 21.0378Z" fill="white"/>
<path fill-rule="evenodd" clip-rule="evenodd" d="M28.5247 32V0.229919H96.512C98.5814 1.07292 99.2848 2.08601 100 4.52954V27.2725C99.4603 30.1408 98.4338 31.1437 95.4789 32H28.5247ZM36.5348 11.2595H39.5133L40.192 13.115H41.1539L38.4342 6.00558H37.6139L34.899 13.115H35.8658L36.5348 11.2595ZM46.4469 12.6023C46.9156 12.1921 47.194 11.6111 47.2819 10.8591H46.3395C46.2483 11.445 46.0628 11.8568 45.7828 12.0945C45.5061 12.3288 45.1074 12.446 44.5865 12.446C44.0071 12.446 43.5563 12.2181 43.234 11.7624C42.9117 11.3067 42.7506 10.6931 42.7506 9.9216V9.23312C42.7506 8.41607 42.9199 7.78618 43.2584 7.34348C43.6002 6.90077 44.0706 6.67941 44.6695 6.67941C45.1578 6.67941 45.5371 6.80637 45.8072 7.06027C46.0807 7.31418 46.2581 7.72433 46.3395 8.29074H47.2819C47.207 7.5453 46.9417 6.96262 46.486 6.54269C46.0302 6.11952 45.4248 5.90793 44.6695 5.90793C44.0999 5.90793 43.5986 6.04302 43.1656 6.3132C42.7327 6.58013 42.3974 6.96424 42.1598 7.46555C41.9254 7.96685 41.8082 8.5479 41.8082 9.20871V9.8923C41.8082 10.9014 42.0605 11.7071 42.5651 12.3093C43.0729 12.9115 43.7467 13.2126 44.5865 13.2126C45.3613 13.2126 45.9814 13.0092 46.4469 12.6023ZM52.9606 12.6023C53.4293 12.1921 53.7076 11.6111 53.7955 10.8591H52.8531C52.762 11.445 52.5764 11.8568 52.2965 12.0945C52.0198 12.3288 51.621 12.446 51.1002 12.446C50.5208 12.446 50.0699 12.2181 49.7477 11.7624C49.4254 11.3067 49.2643 10.6931 49.2643 9.9216V9.23312C49.2643 8.41607 49.4335 7.78618 49.7721 7.34348C50.1139 6.90077 50.5843 6.67941 51.1832 6.67941C51.6715 6.67941 52.0507 6.80637 52.3209 7.06027C52.5944 7.31418 52.7718 7.72433 52.8531 8.29074H53.7955C53.7207 7.5453 53.4554 6.96262 52.9996 6.54269C52.5439 6.11952 51.9384 5.90793 51.1832 5.90793C50.6136 5.90793 50.1123 6.04302 49.6793 6.3132C49.2464 6.58013 48.9111 6.96424 48.6735 7.46555C48.4391 7.96685 48.3219 8.5479 48.3219 9.20871V9.8923C48.3219 10.9014 48.5742 11.7071 49.0787 12.3093C49.5865 12.9115 50.2604 13.2126 51.1002 13.2126C51.875 13.2126 52.4951 13.0092 52.9606 12.6023ZM56.0172 10.239H57.6871L59.2301 13.115H60.236V13.0564L58.566 10.0388C58.9925 9.87603 59.3245 9.63026 59.5621 9.30148C59.803 8.97271 59.9235 8.58696 59.9235 8.14426C59.9235 7.44764 59.707 6.91704 59.274 6.55246C58.8444 6.18788 58.2291 6.00558 57.4283 6.00558H55.0748V13.115H56.0172V10.239ZM62.1793 9.82883H65.2604V9.06223H62.1793V6.77707H65.7096V6.00558H61.2418V13.115H65.7584V12.3484H62.1793V9.82883ZM66.9254 6.00558V13.115H68.8932C69.5312 13.1084 70.0895 12.9701 70.568 12.6999C71.0498 12.4297 71.4192 12.0424 71.6764 11.5378C71.9368 11.0333 72.067 10.4457 72.067 9.77512V9.32101C72.0638 8.66672 71.9319 8.08729 71.6715 7.58273C71.4143 7.07818 71.0481 6.68918 70.5729 6.41574C70.0976 6.1423 69.5507 6.00558 68.9322 6.00558H66.9254ZM73.5563 13.115H74.4938V6.00558H73.5563V13.115ZM78.693 6.77707H80.9781V6.00558H75.4801V6.77707H77.7604V13.115H78.693V6.77707ZM82.9703 9.82883H86.0514V9.06223H82.9703V6.77707H86.5006V6.00558H82.0328V13.115H86.5494V12.3484H82.9703V9.82883ZM87.7164 6.00558V13.115H89.6842C90.3222 13.1084 90.8805 12.9701 91.359 12.6999C91.8408 12.4297 92.2102 12.0424 92.4674 11.5378C92.7278 11.0333 92.858 10.4457 92.858 9.77512V9.32101C92.8548 8.66672 92.7229 8.08729 92.4625 7.58273C92.2054 7.07818 91.8391 6.68918 91.3639 6.41574C90.8886 6.1423 90.3417 6.00558 89.7233 6.00558H87.7164ZM35.5875 18.0056V25.115H38.0533C38.8085 25.115 39.3929 24.9327 39.8063 24.5681C40.2197 24.2035 40.4264 23.7022 40.4264 23.0642C40.4264 22.6475 40.3141 22.2894 40.0895 21.99C39.8681 21.6872 39.5654 21.4821 39.1813 21.3747C39.5068 21.2348 39.7639 21.0378 39.9528 20.7839C40.1416 20.5267 40.236 20.2321 40.236 19.9001C40.236 19.2751 40.0406 18.8031 39.65 18.4841C39.2626 18.1651 38.6832 18.0056 37.9117 18.0056H35.5875ZM46.8229 22.8396V18.0056H45.8805V22.8249C45.8805 23.3392 45.7389 23.738 45.4557 24.0212C45.1757 24.3044 44.7705 24.446 44.2399 24.446C43.7158 24.446 43.3121 24.3044 43.0289 24.0212C42.7457 23.7348 42.6041 23.3344 42.6041 22.82V18.0056H41.6764V22.8493C41.6829 23.585 41.9173 24.1628 42.3795 24.5827C42.8417 25.0027 43.4619 25.2126 44.2399 25.2126L44.4889 25.2029C45.205 25.1508 45.7714 24.9115 46.1881 24.4851C46.608 24.0586 46.8196 23.5101 46.8229 22.8396ZM48.6393 21.0964C49.0071 21.4317 49.5931 21.7149 50.3971 21.946C51.0384 22.1316 51.4811 22.3204 51.7252 22.5124C51.9694 22.7012 52.0914 22.9698 52.0914 23.3181C52.0914 23.6664 51.9596 23.9415 51.6959 24.1433C51.4322 24.3451 51.053 24.446 50.5582 24.446C50.0276 24.446 49.6028 24.3223 49.2838 24.0749C48.9681 23.8243 48.8102 23.4841 48.8102 23.0544H47.8678C47.8678 23.4678 47.9817 23.8373 48.2096 24.1628C48.4407 24.4883 48.7679 24.7455 49.191 24.9343C49.6142 25.1198 50.0699 25.2126 50.5582 25.2126C51.3102 25.2126 51.9108 25.0401 52.36 24.695C52.8092 24.3467 53.0338 23.8845 53.0338 23.3083C53.0338 22.947 52.9524 22.6329 52.7897 22.3659C52.6302 22.099 52.3828 21.8663 52.0475 21.6677C51.7154 21.4659 51.2532 21.282 50.6608 21.1159C50.0716 20.9499 49.6533 20.7676 49.4059 20.5691C49.1617 20.3672 49.0397 20.1215 49.0397 19.8318C49.0397 19.4704 49.1682 19.1889 49.4254 18.987C49.6858 18.782 50.0472 18.6794 50.5094 18.6794C51.0074 18.6794 51.3932 18.8031 51.6666 19.0505C51.9401 19.2946 52.0768 19.6316 52.0768 20.0612H53.0192C53.0192 19.6674 52.9134 19.3044 52.7018 18.9724C52.4934 18.6404 52.1972 18.3799 51.8131 18.1911C51.4322 18.0023 50.9977 17.9079 50.5094 17.9079C49.7932 17.9079 49.2106 18.0918 48.7613 18.4597C48.3154 18.8243 48.0924 19.2865 48.0924 19.8464C48.0924 20.3412 48.2747 20.7579 48.6393 21.0964ZM54.3082 25.115H55.2457V18.0056H54.3082V25.115ZM61.486 25.115H62.4283V18.0056H61.4957V23.5085L57.9069 18.0056H56.9645V25.115H57.9069V19.6364L61.486 25.115ZM65.0309 21.8288H68.1119V21.0622H65.0309V18.7771H68.5611V18.0056H64.0934V25.115H68.61V24.3484H65.0309V21.8288ZM70.1139 21.0964C70.4817 21.4317 71.0677 21.7149 71.8717 21.946C72.513 22.1316 72.9557 22.3204 73.1998 22.5124C73.444 22.7012 73.566 22.9698 73.566 23.3181C73.566 23.6664 73.4342 23.9415 73.1705 24.1433C72.9069 24.3451 72.5276 24.446 72.0328 24.446C71.5022 24.446 71.0774 24.3223 70.7584 24.0749C70.4427 23.8243 70.2848 23.4841 70.2848 23.0544H69.3424C69.3424 23.4678 69.4563 23.8373 69.6842 24.1628C69.9153 24.4883 70.2425 24.7455 70.6656 24.9343C71.0888 25.1198 71.5445 25.2126 72.0328 25.2126C72.7848 25.2126 73.3854 25.0401 73.8346 24.695C74.2838 24.3467 74.5084 23.8845 74.5084 23.3083C74.5084 22.947 74.427 22.6329 74.2643 22.3659C74.1048 22.099 73.8574 21.8663 73.5221 21.6677C73.1901 21.4659 72.7278 21.282 72.1354 21.1159C71.5462 20.9499 71.1279 20.7676 70.8805 20.5691C70.6363 20.3672 70.5143 20.1215 70.5143 19.8318C70.5143 19.4704 70.6429 19.1889 70.9 18.987C71.1604 18.782 71.5218 18.6794 71.984 18.6794C72.482 18.6794 72.8678 18.8031 73.1412 19.0505C73.4147 19.2946 73.5514 19.6316 73.5514 20.0612H74.4938C74.4938 19.6674 74.388 19.3044 74.1764 18.9724C73.9681 18.6404 73.6718 18.3799 73.2877 18.1911C72.9069 18.0023 72.4723 17.9079 71.984 17.9079C71.2679 17.9079 70.6852 18.0918 70.236 18.4597C69.79 18.8243 69.567 19.2865 69.567 19.8464C69.567 20.3412 69.7493 20.7579 70.1139 21.0964ZM76.0514 21.0964C76.4192 21.4317 77.0052 21.7149 77.8092 21.946C78.4505 22.1316 78.8932 22.3204 79.1373 22.5124C79.3815 22.7012 79.5035 22.9698 79.5035 23.3181C79.5035 23.6664 79.3717 23.9415 79.108 24.1433C78.8444 24.3451 78.4651 24.446 77.9703 24.446C77.4397 24.446 77.0149 24.3223 76.6959 24.0749C76.3802 23.8243 76.2223 23.4841 76.2223 23.0544H75.2799C75.2799 23.4678 75.3938 23.8373 75.6217 24.1628C75.8528 24.4883 76.18 24.7455 76.6031 24.9343C77.0263 25.1198 77.482 25.2126 77.9703 25.2126C78.7223 25.2126 79.3229 25.0401 79.7721 24.695C80.2213 24.3467 80.4459 23.8845 80.4459 23.3083C80.4459 22.947 80.3645 22.6329 80.2018 22.3659C80.0423 22.099 79.7949 21.8663 79.4596 21.6677C79.1276 21.4659 78.6653 21.282 78.0729 21.1159C77.4837 20.9499 77.0654 20.7676 76.818 20.5691C76.5738 20.3672 76.4518 20.1215 76.4518 19.8318C76.4518 19.4704 76.5804 19.1889 76.8375 18.987C77.0979 18.782 77.4593 18.6794 77.9215 18.6794C78.4195 18.6794 78.8053 18.8031 79.0787 19.0505C79.3522 19.2946 79.4889 19.6316 79.4889 20.0612H80.4313C80.4313 19.6674 80.3255 19.3044 80.1139 18.9724C79.9056 18.6404 79.6093 18.3799 79.2252 18.1911C78.8444 18.0023 78.4098 17.9079 77.9215 17.9079C77.2054 17.9079 76.6227 18.0918 76.1735 18.4597C75.7275 18.8243 75.5045 19.2865 75.5045 19.8464C75.5045 20.3412 75.6868 20.7579 76.0514 21.0964Z" fill="white"/>
<path fill-rule="evenodd" clip-rule="evenodd" d="M39.235 10.488H36.818L38.024 7.16281L39.235 10.488ZM56.0172 9.47238H57.4576C57.9231 9.47238 58.2926 9.35194 58.566 9.11105C58.8427 8.87017 58.9811 8.5479 58.9811 8.14426C58.9811 7.7048 58.8492 7.36789 58.5856 7.13351C58.3251 6.89914 57.9475 6.78032 57.4528 6.77707H56.0172V9.47238ZM67.8629 6.77707V12.3484H68.8492C69.5719 12.3484 70.1334 12.1237 70.5338 11.6745C70.9375 11.2253 71.1393 10.5857 71.1393 9.75558V9.34055C71.1393 8.53325 70.9488 7.90663 70.568 7.46066C70.1904 7.01144 69.6533 6.78358 68.9567 6.77707H67.8629ZM88.6539 6.77707V12.3484H89.6403C90.3629 12.3484 90.9244 12.1237 91.3248 11.6745C91.7285 11.2253 91.9303 10.5857 91.9303 9.75558V9.34055C91.9303 8.53325 91.7399 7.90663 91.359 7.46066C90.9814 7.01144 90.4443 6.78358 89.7477 6.77707H88.6539ZM36.525 24.3484V21.7898H38.0875C39.0185 21.7898 39.484 22.2178 39.484 23.0739C39.484 23.4711 39.357 23.7836 39.1031 24.0114C38.8525 24.2361 38.5091 24.3484 38.0729 24.3484H36.525ZM37.941 21.0378H36.525V18.7771H37.9117C38.3772 18.7771 38.7239 18.8666 38.9518 19.0456C39.1796 19.2214 39.2936 19.5046 39.2936 19.8952C39.2936 20.2468 39.1699 20.5251 38.9225 20.7302C38.6783 20.9353 38.3512 21.0378 37.941 21.0378Z" fill="white"/>
<rect x="0.5" y="0.5" width="99" height="31" rx="4.5" stroke="white"/>
</svg>
