<svg width="32" height="33" viewBox="0 0 32 33" fill="none" xmlns="http://www.w3.org/2000/svg">
<g clip-path="url(#clip0)">
<path d="M18.7993 15.6259L9.68911 4.11352C9.68911 4.11352 4.04089 11.2016 1.89439 13.8965C1.76335 14.0612 1.55848 14.1158 1.37821 14.0335C1.19795 13.952 1.07922 13.7503 1.07922 13.5259V13.5251C1.07922 13.4159 1.11542 13.31 1.17913 13.2301C2.13691 12.0276 9.68911 2.54968 9.68911 2.54968H22.0918C22.0918 2.54968 28.8375 12.1873 30.7465 14.915C30.8377 15.0452 30.8566 15.2259 30.7936 15.3772C30.7313 15.5293 30.5996 15.6259 30.4548 15.6259C27.7168 15.6259 18.7993 15.6259 18.7993 15.6259Z" stroke="white" stroke-width="2" stroke-miterlimit="2" stroke-linejoin="round"/>
<path fill-rule="evenodd" clip-rule="evenodd" d="M10.0012 9.85275L16.9382 19.1067H25.5936V26.8327C25.5936 27.1395 25.4884 27.4335 25.3009 27.6503C25.1134 27.8671 24.859 27.9886 24.5942 27.9886H18.8727L19.0375 31.7391L15.5852 27.9886H4.36334C3.73907 27.9886 3.23291 27.4035 3.23291 26.6812C3.23291 24.0093 3.23291 18.1706 3.23291 18.1706L10.0012 9.85275Z" stroke="white" stroke-width="2" stroke-miterlimit="2" stroke-linejoin="round"/>
</g>
<defs>
<clipPath id="clip0">
<rect width="32" height="32" fill="white" transform="translate(0 0.896576)"/>
</clipPath>
</defs>
</svg>
