<svg width="33" height="33" viewBox="0 0 33 33" fill="none" xmlns="http://www.w3.org/2000/svg">
<path d="M23.5594 2.89658H10.2261C6.54422 2.89658 3.55945 5.88135 3.55945 9.56325V22.8966C3.55945 26.5785 6.54422 29.5633 10.2261 29.5633H23.5594C27.2413 29.5633 30.2261 26.5785 30.2261 22.8966V9.56325C30.2261 5.88135 27.2413 2.89658 23.5594 2.89658Z" stroke="white" stroke-width="2" stroke-linecap="round" stroke-linejoin="round"/>
<path d="M22.2261 15.3899C22.3907 16.4996 22.2011 17.6329 21.6845 18.6286C21.1678 19.6243 20.3503 20.4318 19.3483 20.9361C18.3463 21.4405 17.2107 21.616 16.1032 21.4378C14.9956 21.2596 13.9725 20.7367 13.1792 19.9435C12.386 19.1502 11.8631 18.1271 11.6849 17.0195C11.5066 15.912 11.6822 14.7764 12.1865 13.7744C12.6909 12.7724 13.4984 11.9549 14.4941 11.4382C15.4898 10.9216 16.6231 10.732 17.7328 10.8966C18.8647 11.0644 19.9126 11.5919 20.7217 12.401C21.5308 13.2101 22.0583 14.258 22.2261 15.3899Z" stroke="white" stroke-width="2" stroke-linecap="round" stroke-linejoin="round"/>
<path d="M24.2261 8.89659H24.239" stroke="white" stroke-width="2" stroke-linecap="round" stroke-linejoin="round"/>
</svg>
