<svg preserveAspectRatio="none" viewBox="0 0 41 41" fill="none" xmlns="http://www.w3.org/2000/svg">
<path d="M37.4185 28.2231V33.2231C37.4204 33.6873 37.3253 34.1467 37.1394 34.572C36.9534 34.9973 36.6807 35.3791 36.3387 35.6929C35.9966 36.0067 35.5928 36.2456 35.1531 36.3943C34.7134 36.543 34.2475 36.5982 33.7852 36.5565C28.6566 35.9992 23.7302 34.2467 19.4019 31.4398C15.3749 28.8809 11.9608 25.4668 9.40187 21.4398C6.58517 17.0918 4.83227 12.1415 4.2852 6.9898C4.24355 6.52891 4.29833 6.0644 4.44604 5.62584C4.59375 5.18728 4.83115 4.78428 5.14315 4.4425C5.45514 4.10072 5.83488 3.82765 6.25819 3.64067C6.6815 3.45369 7.1391 3.35691 7.60187 3.35647H12.6019C13.4107 3.34851 14.1949 3.63493 14.8081 4.16236C15.4214 4.68978 15.822 5.42221 15.9352 6.22314C16.1462 7.82325 16.5376 9.39435 17.1019 10.9065C17.3261 11.503 17.3746 12.1513 17.2417 12.7746C17.1088 13.3979 16.8 13.97 16.3519 14.4231L14.2352 16.5398C16.6078 20.7124 20.0626 24.1672 24.2352 26.5398L26.3519 24.4231C26.805 23.975 27.3771 23.6662 28.0004 23.5333C28.6237 23.4004 29.272 23.4489 29.8685 23.6731C31.3807 24.2374 32.9518 24.6288 34.5519 24.8398C35.3615 24.954 36.1009 25.3618 36.6294 25.9856C37.158 26.6094 37.4388 27.4058 37.4185 28.2231Z" stroke="white" stroke-width="3" stroke-linecap="round" stroke-linejoin="round"/>
</svg>
