<svg width="32" height="32" viewBox="0 0 32 32" fill="none" xmlns="http://www.w3.org/2000/svg">
<path d="M28.4447 22.5169V26.3919C28.4461 26.7516 28.3724 27.1077 28.2283 27.4373C28.0842 27.7669 27.8729 28.0628 27.6078 28.306C27.3427 28.5492 27.0298 28.7343 26.689 28.8496C26.3482 28.9648 25.9871 29.0076 25.6288 28.9752C21.6542 28.5434 17.8362 27.1852 14.4818 25.0098C11.3609 23.0267 8.7149 20.3807 6.73176 17.2598C4.54882 13.8901 3.19032 10.0536 2.76634 6.06108C2.73407 5.70389 2.77652 5.34389 2.89099 5.00401C3.00546 4.66412 3.18946 4.3518 3.43125 4.08692C3.67304 3.82204 3.96734 3.61041 4.29541 3.4655C4.62347 3.32059 4.97812 3.24558 5.33676 3.24524H9.21176C9.83861 3.23907 10.4463 3.46105 10.9216 3.86981C11.3969 4.27856 11.7074 4.84619 11.7951 5.46691C11.9586 6.70699 12.262 7.9246 12.6993 9.09649C12.873 9.55881 12.9107 10.0613 12.8076 10.5443C12.7046 11.0273 12.4653 11.4707 12.118 11.8219L10.4776 13.4623C12.3164 16.6961 14.9938 19.3736 18.2276 21.2123L19.868 19.5719C20.2192 19.2246 20.6626 18.9853 21.1456 18.8823C21.6287 18.7793 22.1311 18.8169 22.5934 18.9907C23.7653 19.428 24.9829 19.7313 26.223 19.8948C26.8505 19.9833 27.4235 20.2994 27.8331 20.7828C28.2427 21.2663 28.4604 21.8834 28.4447 22.5169Z" fill="#525355" stroke="#525355" stroke-width="2" stroke-linecap="round" stroke-linejoin="round"/>
</svg>
