<svg width="41" height="41" viewBox="0 0 41 41" fill="none" xmlns="http://www.w3.org/2000/svg">
<path d="M39.6271 20.8749C39.6271 31.6684 30.8956 40.4165 20.1271 40.4165C9.3585 40.4165 0.627075 31.6684 0.627075 20.8749C0.627075 10.0814 9.3585 1.33325 20.1271 1.33325C30.8956 1.33325 39.6271 10.0814 39.6271 20.8749Z" fill="#88888E" stroke="#3E3C3C"/>
<path d="M20.1271 36.6947C28.8716 36.6947 35.9604 29.6059 35.9604 20.8614C35.9604 12.1169 28.8716 5.02808 20.1271 5.02808C11.3826 5.02808 4.29375 12.1169 4.29375 20.8614C4.29375 29.6059 11.3826 36.6947 20.1271 36.6947Z" stroke="#27272B" stroke-width="3" stroke-linecap="round" stroke-linejoin="round"/>
<path d="M20.1271 27.1947L26.4604 20.8614L20.1271 14.5281" stroke="#27272B" stroke-width="3" stroke-linecap="round" stroke-linejoin="round"/>
<path d="M13.7937 20.8613H26.4604" stroke="#27272B" stroke-width="3" stroke-linecap="round" stroke-linejoin="round"/>
</svg>
