<svg width="33" height="33" viewBox="0 0 33 33" fill="none" xmlns="http://www.w3.org/2000/svg">
<path d="M23.688 5.13376L18.4428 10.379L19.1499 13.9145L22.6854 14.6216L27.9306 9.3764L27.9312 9.37618C28.5804 10.9087 28.7357 12.6055 28.3754 14.2305C28.0151 15.8554 27.1571 17.3275 25.921 18.442C24.6848 19.5565 23.1319 20.2579 21.4785 20.4484C19.825 20.639 18.1533 20.3094 16.696 19.5054L16.6962 19.5051L9.6854 27.6216C9.12268 28.1837 8.35979 28.4993 7.56444 28.4991C6.76909 28.4989 6.00637 28.1828 5.44397 27.6204C4.88157 27.058 4.56552 26.2953 4.56529 25.5C4.56507 24.7046 4.88069 23.9417 5.44277 23.379L13.5592 16.3683L13.559 16.3684C12.755 14.9111 12.4254 13.2394 12.616 11.5859C12.8065 9.9325 13.5079 8.37962 14.6224 7.14345C15.7369 5.90729 17.209 5.04934 18.8339 4.68904C20.4589 4.32874 22.1557 4.48402 23.6882 5.13325L23.688 5.13376Z" stroke="#46423D" stroke-width="2" stroke-linecap="round" stroke-linejoin="round"/>
</svg>
